<svg xmlns="http://www.w3.org/2000/svg" viewBox="0 0 222.25 46.9"><path d="M55.56,32.84a4.74,4.74,0,0,1-9.48,0h0V22.42H44.37V32.84a6.46,6.46,0,0,0,12.91,0V22.37H55.56Z" fill="#4f4f4f"/><rect x="96.32" y="22.42" width="1.72" height="16.18" fill="#4f4f4f"/><path d="M66.57,21.51A6.46,6.46,0,0,0,60.11,28V38.43h1.72V28a4.74,4.74,0,0,1,9.48,0h0V38.38H73V28a6.45,6.45,0,0,0-6.41-6.49Z" fill="#4f4f4f"/><path d="M178.24,28V38.43H180V28a4.74,4.74,0,0,1,4.74-4.74h0V21.51A6.46,6.46,0,0,0,178.24,28Z" fill="#4f4f4f"/><path d="M134.61,22a8.73,8.73,0,1,0,8.73,8.73h0A8.69,8.69,0,0,0,134.71,22Zm0,15.74a7,7,0,1,1,7-7h0a7,7,0,0,1-7,7Z" fill="#4f4f4f"/><path d="M91,25.54a8.72,8.72,0,1,0,1.72,5.18V14.12H91ZM84,37.73a7,7,0,1,1,7-7,7,7,0,0,1-7,7h0Z" fill="#4f4f4f"/><path d="M220.53,14.12V25.54a8.72,8.72,0,1,0,1.72,5.18V14.12Zm-7,23.61a7,7,0,1,1,7-7,7,7,0,0,1-7,7h0Z" fill="#4f4f4f"/><path d="M105.6,30c-2.57-.48-2.87-1.85-2.87-2.84,0-1.65,1.7-3,3.78-3a4,4,0,0,1,3.4,1.69l1.46-.9a5.69,5.69,0,0,0-4.86-2.51c-3,0-5.5,2.12-5.5,4.72,0,1.7.74,3.87,4.27,4.53,2.27.42,4.69,1.12,4.71,2.73a2.59,2.59,0,0,1-.8,1.83,4.18,4.18,0,0,1-3,1.16,4,4,0,0,1-3.32-1.57l-1.41,1a5.75,5.75,0,0,0,4.73,2.32,6,6,0,0,0,4.21-1.67,4.31,4.31,0,0,0,1.29-3.06C111.69,32.11,109.46,30.72,105.6,30Z" fill="#4f4f4f"/><path d="M175.25,31.58v-.86a8.76,8.76,0,1,0-.46,2.77H173a7,7,0,0,1-13.39-1.91Zm-15.69-1.72a7,7,0,0,1,13.91,0Z" fill="#4f4f4f"/><path d="M203.16,31.58v-.86a8.76,8.76,0,1,0-.46,2.77h-1.84a7,7,0,0,1-13.39-1.91Zm-15.69-1.72a7,7,0,0,1,13.92,0Z" fill="#4f4f4f"/><polygon points="150.22 36.02 145.25 22.4 143.42 22.4 149.44 38.88 151.04 38.87 156.86 22.4 155.04 22.4 150.22 36.02" fill="#4f4f4f"/><path d="M113.57,30.8a8.56,8.56,0,0,0,8.73,8.35h2.34V37.47H122.3a6.87,6.87,0,0,1-7-6.67c0-3.59,3.09-6.41,7-6.41h2.34V22.72H122.3C117.4,22.72,113.57,26.27,113.57,30.8Z" fill="#4f4f4f"/><path d="M33.4,38.77A17.89,17.89,0,1,1,8.65,13h0a1.25,1.25,0,0,0-.12-1.76A1.23,1.23,0,0,0,7,11.14H7A20.38,20.38,0,1,0,35.22,40.49h0a1.25,1.25,0,1,0-1.82-1.72Z" fill="#4f4f4f"/><path d="M34.16,26.51a13.78,13.78,0,1,1-27.55.74c0-.25,0-.49,0-.74v-1h0a1.25,1.25,0,1,0-2.48-.31.57.57,0,0,0,0,.13h0v1.19a16.28,16.28,0,0,0,32.55.81q0-.41,0-.81h0a1.25,1.25,0,1,0-2.5,0Z" fill="#f16024"/><path d="M26.23,18.88A9.62,9.62,0,0,1,14.61,34.21a9.24,9.24,0,0,1-1.51-1.42h0a1.25,1.25,0,1,0-1.9,1.63h0A12.12,12.12,0,0,0,29.52,18.55a12.32,12.32,0,0,0-1.74-1.65h0a1.26,1.26,0,1,0-1.53,2Z" fill="#f79021"/><path d="M20.52,21.06a5.46,5.46,0,0,1,0,10.91h0a1.25,1.25,0,1,0,0,2.5h0a8,8,0,0,0,0-15.91h0a1.25,1.25,0,0,0,0,2.5Z" fill="#fdb716"/><path d="M136.78,30.57a2.13,2.13,0,1,1-2.13-2.13h0a2.12,2.12,0,0,1,2.12,2.12Z" fill="#4f4f4f"/><path d="M112.9,13.92V2.46h3.77a4.81,4.81,0,0,1,2.21.44,2.9,2.9,0,0,1,1.29,1.2,3.42,3.42,0,0,1,.41,1.7,3.44,3.44,0,0,1-.41,1.69,2.9,2.9,0,0,1-1.27,1.2,4.83,4.83,0,0,1-2.23.45h-2.39v4.78ZM114.28,8h2.36a2.72,2.72,0,0,0,2-.58,2.16,2.16,0,0,0,.59-1.6,2.15,2.15,0,0,0-.59-1.61,2.67,2.67,0,0,0-2-.59h-2.36Z" fill="#4f4f4f"/><path d="M125.53,14.12a4.07,4.07,0,0,1-2.06-.52A3.78,3.78,0,0,1,122,12.11a4.46,4.46,0,0,1-.53-2.25A4.51,4.51,0,0,1,122,7.61a3.85,3.85,0,0,1,1.46-1.48,4.15,4.15,0,0,1,2.08-.53,4.08,4.08,0,0,1,2.06.53,3.82,3.82,0,0,1,1.45,1.48,4.62,4.62,0,0,1,.53,2.25,4.46,4.46,0,0,1-.54,2.25,3.83,3.83,0,0,1-1.47,1.49A4.08,4.08,0,0,1,125.53,14.12Zm0-1.18a2.59,2.59,0,0,0,1.31-.34,2.66,2.66,0,0,0,1-1,3.55,3.55,0,0,0,.37-1.71,3.53,3.53,0,0,0-.37-1.7,2.48,2.48,0,0,0-1-1,2.61,2.61,0,0,0-1.29-.35,2.66,2.66,0,0,0-1.32.35,2.57,2.57,0,0,0-1,1,3.53,3.53,0,0,0-.38,1.7,3.54,3.54,0,0,0,.38,1.71,2.63,2.63,0,0,0,1,1A2.48,2.48,0,0,0,125.53,12.94Z" fill="#4f4f4f"/><path d="M132.86,13.92,130.48,5.8h1.38l1.72,6.37,1.9-6.37H137L139,12.17l1.7-6.37h1.4l-2.38,8.12h-1.41l-2-6.7-2,6.7Z" fill="#4f4f4f"/><path d="M146.91,14.12a4,4,0,0,1-2.06-.53,3.81,3.81,0,0,1-1.42-1.48,4.7,4.7,0,0,1-.52-2.25,4.65,4.65,0,0,1,.51-2.23,3.64,3.64,0,0,1,1.42-1.49,4,4,0,0,1,2.1-.54,3.74,3.74,0,0,1,2,.54,3.48,3.48,0,0,1,1.32,1.4,3.85,3.85,0,0,1,.46,1.86c0,.12,0,.24,0,.36s0,.26,0,.41h-6.47a3.22,3.22,0,0,0,.44,1.55,2.59,2.59,0,0,0,1,.93,2.68,2.68,0,0,0,1.24.31,2.43,2.43,0,0,0,1.43-.4,2.19,2.19,0,0,0,.83-1.06h1.36a3.55,3.55,0,0,1-3.62,2.62Zm0-7.35a2.77,2.77,0,0,0-1.74.59,2.42,2.42,0,0,0-.88,1.75h5.11a2.3,2.3,0,0,0-.75-1.72A2.51,2.51,0,0,0,146.91,6.77Z" fill="#4f4f4f"/><path d="M152.58,13.92V5.8h1.24l.12,1.56a2.85,2.85,0,0,1,1.15-1.28A3.5,3.5,0,0,1,157,5.6V7h-.38a3.43,3.43,0,0,0-1.33.26,2,2,0,0,0-1,.86A3.26,3.26,0,0,0,154,9.83v4.09Z" fill="#4f4f4f"/><path d="M161.87,14.12a4,4,0,0,1-2.07-.53,3.79,3.79,0,0,1-1.41-1.48,4.59,4.59,0,0,1-.52-2.25,4.65,4.65,0,0,1,.51-2.23,3.69,3.69,0,0,1,1.41-1.49,4.06,4.06,0,0,1,2.11-.54,3.74,3.74,0,0,1,2,.54,3.62,3.62,0,0,1,1.32,1.4,4,4,0,0,1,.46,1.86c0,.12,0,.24,0,.36s0,.26,0,.41h-6.47a3.22,3.22,0,0,0,.43,1.55,2.61,2.61,0,0,0,1,.93,2.68,2.68,0,0,0,1.24.31,2.38,2.38,0,0,0,1.42-.4,2.27,2.27,0,0,0,.84-1.06h1.36a3.71,3.71,0,0,1-1.26,1.88A3.66,3.66,0,0,1,161.87,14.12Zm0-7.35a2.8,2.8,0,0,0-1.75.59,2.38,2.38,0,0,0-.87,1.75h5.11a2.35,2.35,0,0,0-.76-1.72A2.48,2.48,0,0,0,161.87,6.77Z" fill="#4f4f4f"/><path d="M171.22,14.12a3.9,3.9,0,0,1-2.12-.56A3.7,3.7,0,0,1,167.69,12a4.74,4.74,0,0,1-.5-2.19,4.6,4.6,0,0,1,.51-2.19,3.87,3.87,0,0,1,1.41-1.51,4.07,4.07,0,0,1,2.13-.55A3.79,3.79,0,0,1,173,6a3,3,0,0,1,1.19,1.15v-5h1.38V13.92h-1.25l-.13-1.34a3.89,3.89,0,0,1-1.13,1.07A3.41,3.41,0,0,1,171.22,14.12Zm.15-1.19a2.71,2.71,0,0,0,1.45-.39,2.6,2.6,0,0,0,1-1.07,3.44,3.44,0,0,0,.35-1.61,3.4,3.4,0,0,0-.35-1.6,2.63,2.63,0,0,0-1-1.08,2.8,2.8,0,0,0-1.45-.38,2.73,2.73,0,0,0-1.43.38,2.65,2.65,0,0,0-1,1.08,3.52,3.52,0,0,0-.35,1.6,3.57,3.57,0,0,0,.35,1.61,2.67,2.67,0,0,0,2.42,1.46Z" fill="#4f4f4f"/><path d="M186.51,14.12a3.8,3.8,0,0,1-1.78-.41,2.76,2.76,0,0,1-1.19-1.15l-.13,1.36h-1.24V2.13h1.37v5a3.82,3.82,0,0,1,1.12-1.06,3.34,3.34,0,0,1,1.86-.48,4,4,0,0,1,2.12.56A3.87,3.87,0,0,1,190,7.68a4.78,4.78,0,0,1,.5,2.2,4.71,4.71,0,0,1-.5,2.19,3.84,3.84,0,0,1-1.41,1.5A4,4,0,0,1,186.51,14.12Zm-.15-1.19a2.64,2.64,0,0,0,2.42-1.46,3.44,3.44,0,0,0,.36-1.61,3.4,3.4,0,0,0-.36-1.6,2.7,2.7,0,0,0-1-1.08,2.73,2.73,0,0,0-3.87,1.08,3.4,3.4,0,0,0-.36,1.6,3.44,3.44,0,0,0,.36,1.61,2.69,2.69,0,0,0,1,1.07A2.63,2.63,0,0,0,186.36,12.93Z" fill="#4f4f4f"/><path d="M192.68,17.53l2-4.39h-.48L191,5.8h1.49l2.68,6.32L198,5.8h1.43l-5.33,11.73Z" fill="#4f4f4f"/></svg>